<?xml version="1.0" encoding="UTF-8"?>
<!-- Generator: Adobe Illustrator 19.2.1, SVG Export Plug-In . SVG Version: 6.00 Build 0)  -->
<svg version="1.1" id="Layer_1" xmlns="http://www.w3.org/2000/svg" xmlns:xlink="http://www.w3.org/1999/xlink" x="0px" y="0px" viewBox="0 0 800 800" style="enable-background:new 0 0 800 800;" xml:space="preserve">
<style type="text/css">
	.st0{fill:#28333E;stroke:#1D1D1B;stroke-miterlimit:10;}
	.st1{fill:#FFFFFF;}
	.st2{fill:#DFD726;}
	.st3{fill:#E0E0E0;}
	.st4{fill:#DD0717;}
	.st5{fill:#CC0D0D;}
	.st6{fill:#121B0F;}
</style>
<g id="Background">
</g>
<rect x="-0.5" y="706.3" class="st0" width="801" height="93"/>
<g>
	<g>
		<path class="st1" d="M259.3,764.7h-3.5l13.6-30.1h3l13.6,30.1h-3.5l-3.3-7.3h-16.7L259.3,764.7z M263.8,754.6H278l-7.1-16    L263.8,754.6z"/>
		<path class="st1" d="M309.6,764.3c-5.4,1-7.4,1-10.6,1c-6,0-10.1-4.1-10.1-10.9c0-6.4,3.8-10.7,10.5-10.7c2.4,0,4.8,0.2,7.2,0.9    v-11.2h3V764.3z M291.9,754.4c0,5,2.8,8.4,7.7,8.4c1.9,0,3.5,0,7-0.6v-14.9c-2.6-0.7-4.8-0.9-6.9-0.9    C294.5,746.3,291.9,749.6,291.9,754.4z"/>
		<path class="st1" d="M336.4,764.3c-5.4,1-7.4,1-10.6,1c-6,0-10.1-4.1-10.1-10.9c0-6.4,3.8-10.7,10.5-10.7c2.4,0,4.8,0.2,7.2,0.9    v-11.2h3V764.3z M318.6,754.4c0,5,2.8,8.4,7.7,8.4c1.9,0,3.5,0,7-0.6v-14.9c-2.6-0.7-4.8-0.9-6.9-0.9    C321.3,746.3,318.6,749.6,318.6,754.4z"/>
		<path class="st1" d="M369.8,764.7l-8.4-24.7l-8.4,24.7h-3l-10.3-29.9h3.3l8.5,25.1l8.4-25.1h2.7l8.5,25.1l8.4-25.1h3.3l-10.3,29.9    H369.8z"/>
		<path class="st1" d="M403.7,753.4c0,1,0,1.4-0.1,2.3h-16.9c0.5,4.2,3.4,7,7.9,7c2.6,0,4.7-0.4,7.5-1.1l0.5,2.5    c-2.7,0.8-5,1.4-8.1,1.4c-7,0-11-4.5-11-10.9c0-6.5,4.4-10.8,10.6-10.8C399.7,743.7,403.6,747.4,403.7,753.4z M386.5,753.3h14.4    c-0.1-4.4-2.9-7.1-7-7.1C389.7,746.2,386.9,749,386.5,753.3z"/>
		<path class="st1" d="M412.7,744.6c2.5-0.7,4.8-0.9,7.2-0.9c6.7,0,10.5,4.3,10.5,10.7c0,6.7-4.1,10.9-10.1,10.9    c-3.2,0-5.2,0-10.6-1v-30.8h3V744.6z M412.8,747.2v14.9c3.5,0.6,5.1,0.6,7,0.6c4.9,0,7.7-3.3,7.7-8.4c0-4.8-2.6-8.1-7.8-8.1    C417.6,746.3,415.4,746.5,412.8,747.2z"/>
	</g>
	<g>
		<path class="st1" d="M205.8,768.8l5.8-9.5h7.8c0.9,0,1.9,0,2.9,0s1.9,0,2.6,0.1c-0.4-0.7-0.9-1.5-1.5-2.5s-1.1-2-1.7-2.8l-5.6-9.8    l-14.7,24.6H190l20-33.5c0.7-1.1,1.5-2,2.5-2.9c1-0.8,2.3-1.3,3.8-1.3s2.7,0.4,3.7,1.2s1.8,1.8,2.5,3l19.5,33.5L205.8,768.8    L205.8,768.8z"/>
	</g>
	<g>
		<g>
			<path class="st2" d="M458,738.7c-3.4-1-7.2-1.7-10.1-1.7c-4.3,0-7.2,2-7.2,5.5c0,3,2.3,4.1,7.6,5.2c6.6,1.4,11.4,2.9,11.4,8.8     c0,5.7-4.6,8.8-11.1,8.8c-3.9,0-8.5-0.9-12.5-2.5l0.8-2.9c4,1.6,8.3,2.5,11.7,2.5c4.6,0,7.8-2,7.8-5.7c0-4.6-5.1-5.3-10-6.3     c-6.6-1.4-9.2-3.3-9.2-7.7c0-5.2,4.2-8.4,10.6-8.4c3.8,0,8,0.8,10.8,1.8L458,738.7z"/>
			<path class="st2" d="M486.8,754.5c0,6.6-4.6,11-11.1,11s-11.1-4.4-11.1-11c0-6.5,4.6-10.9,11.1-10.9S486.8,747.9,486.8,754.5z      M483.8,754.5c0-4.9-3.3-8.1-8.1-8.1c-4.7,0-8.1,3.2-8.1,8.1c0,4.9,3.3,8.2,8.1,8.2S483.8,759.4,483.8,754.5z"/>
			<path class="st2" d="M496.2,764.7h-3v-31.2h3V764.7z"/>
			<path class="st2" d="M523.4,764.3c-3,0.7-7.5,1.1-11.1,1.1c-5.1,0-8.3-2.6-8.3-8.3v-12.7h3v12.1c0,4.1,2.1,6.3,5.9,6.3     c2.2,0,4.8-0.2,7.6-0.6v-17.8h3v19.9H523.4z"/>
			<path class="st2" d="M544.5,764.8c-1.6,0.4-2.8,0.6-4.5,0.6c-4.7,0-6.9-2.4-6.9-7.7v-10.5h-4.7v-2.7h4.7V736h3v8.5h7.3v2.7H536     v10.3c0,3.7,1.2,5.3,4.4,5.3c1.1,0,2.3-0.1,3.7-0.4L544.5,764.8z"/>
			<path class="st2" d="M549.3,737c0-1.3,1-2.2,2.2-2.2s2.2,0.9,2.2,2.2c0,1.2-1,2.2-2.2,2.2S549.3,738.3,549.3,737z M553,764.7h-3     v-20.3h3V764.7z"/>
			<path class="st2" d="M581.4,754.5c0,6.6-4.6,11-11.1,11s-11.1-4.4-11.1-11c0-6.5,4.6-10.9,11.1-10.9S581.4,747.9,581.4,754.5z      M578.3,754.5c0-4.9-3.3-8.1-8.1-8.1c-4.7,0-8.1,3.2-8.1,8.1c0,4.9,3.3,8.2,8.1,8.2S578.3,759.4,578.3,754.5z"/>
			<path class="st2" d="M606.8,752v12.7h-3v-12c0-3.9-2.2-6.2-5.9-6.2c-2.2,0-4.8,0.1-7.6,0.6v17.6h-3v-19.9c3-0.7,7.5-1.1,11.1-1.1     C603.7,743.7,606.8,746.8,606.8,752z"/>
		</g>
	</g>
</g>
<g>
	<path class="st3" d="M596.6,131.3C549.4,76.1,479.3,41.1,401,41.1c-142.3,0-257.5,115.3-257.5,257.5c0,80.6,37.1,152.5,95,199.7   c44.4,36.1,100.9,57.8,162.5,57.8c142.3,0,257.5-115.3,257.5-257.5C658.3,234.7,635.1,176.3,596.6,131.3z"/>
	<path class="st1" d="M519.6,419.3c80.9-80.9,107.3-193.7,76.9-288c-47.2-55.2-117.4-90.2-195.7-90.2   c-142.3,0-257.5,115.3-257.5,257.5c0,80.6,37.1,152.5,95,199.7C331.3,525.2,440.7,498.2,519.6,419.3z"/>
	<g>
		<path class="st4" d="M577.3,302.7c17.2-20.5,21.3-88.3,21.7-97l43.6,3.5c0,0-26.2-86.3-115.3-134.4V123    c-27.3,0.2-86.6,11.3-98.2,13.7c-40.6-32.3-77.4-33.8-85.4-33.8l-2-48l21.7-11.2c0,0-25.9,2.9-48.6,11l24.3,0.9l2,47.7    c-42.2,12.1-74.1,56.4-79.8,64.7c-35.9-0.3-62.8,14.6-71.7,20.4v-39.1c0,0-40.9,48.1-48.1,142.7H154c0.3,9.5,3.6,52.8,42.1,90.7    c0.6,49.2,25.8,84.3,30.9,91l-8.1,7.4l1.8,2l8.3-7.4c24.6,19.6,70.3,26.7,79.8,28.1c4.4,4.5,36.5,36.8,77.8,48.4l-0.5,4.1    c72,4.4,122.8-23.2,122.8-23.2l-9.7-8.4c8.3-12.2,22.9-55.5,24.9-61.4c31.5-13.4,66.7-58.2,73.2-66.8l41,3.3l1.2-3l-41.2-2.9    C597.9,345.4,581.4,310.7,577.3,302.7z M406.4,231.2l76.8,83.4L448,417.5c-16.9,8.7-95.6,20.2-112.1,22.6    c-27.6-22.3-62.8-69.8-69.5-79.4c3.2-11.5,25.6-90.5,36.4-103.9C314.7,252.8,395.9,233.6,406.4,231.2z M156.9,291.8    c0,0,4.4-60.2,31.1-99.4v0.2c0.3-0.3,29.7-22.2,72.7-22c8.3,38.2,33.6,76.6,39.4,85.1c-11.2,15.1-32.6,90.4-36.4,103.9l-65.9,20.8    c-37.6-37.1-40.9-79.2-41.2-88.6L156.9,291.8L156.9,291.8z M388.9,549.5c-40.3-10.6-72.1-41.6-77.8-47.7l24.7-59.1    c16.1-2.3,95.3-13.7,113.3-22.8l71.8,43c-3,9.1-17.2,50.1-24.6,60C470.4,537.6,402.2,547.7,388.9,549.5z M484.9,312.5l-76.5-83.3    c5.6-12.5,19-78.1,21.4-90.1c11.8-2.3,72.9-14,98.8-13.6c8.6,6.6,56.3,44.5,68.3,79h-0.5c0,0.8-3.8,75.7-21.3,96.4L484.9,312.5z"/>
		<path class="st4" d="M189.6,149.1c0,0-40.9,48.1-48.1,142.7h2c1.4-52.2,18.3-100.5,46.2-140.4V149.1z"/>
		<path class="st4" d="M363.4,43.5c0,0-25.9,2.9-48.6,11l3,0.2c14.5-5,29.6-8.6,45.1-10.9L363.4,43.5z"/>
		<path class="st4" d="M218.6,480.7l1.8,2l0.3-0.2C220,481.8,219.3,481.2,218.6,480.7L218.6,480.7z"/>
	</g>
	<g>
		<path class="st5" d="M585.5,322c-14.9,35-37,68.2-65.9,97.3c-9.2,9.2-18.9,17.8-29,25.6l30.3,18.1c-3,9.1-17.2,50.1-24.6,60    c-26.1,14.5-94.1,24.6-107.6,26.4c-32-8.4-58.7-29.7-71.2-41.2c-1.4,0-2.6,0-3.9,0c11.5,10.7,38.9,33.8,72.6,43.3l-0.5,4.1    c72,4.4,122.8-23.2,122.8-23.2l-9.7-8.4c8.3-12.2,22.9-55.5,24.9-61.4c31.5-13.4,66.7-58.2,73.2-66.8l41,3.3l1.2-3l-41.2-2.9    C597.9,363.2,591.4,338.3,585.5,322z"/>
		<path class="st5" d="M596.6,131.3c7.7,24.1,11.8,49.5,12.1,75.1l33.9,2.7c0,0-22.6-73.9-96.4-123.1    C564.8,98.7,581.9,114,596.6,131.3z"/>
	</g>
</g>
<g>
	<path class="st4" d="M71.1,596.5h-12v8h10.2v8H59.1v16h-8v-40h20V596.5z"/>
	<path class="st4" d="M107.3,626.1c-3.2,2-7,3.1-11.4,3.1c-4.4,0-8.2-1-11.4-3.1c-3.2-2-5.5-4.6-7-7.6c-1.5-3.1-2.2-6.4-2.2-9.9   c0-3.6,0.7-6.9,2.2-9.9s3.8-5.6,7-7.6c3.2-2,7-3.1,11.4-3.1c4.4,0,8.2,1,11.4,3.1c3.2,2,5.5,4.6,7,7.6s2.2,6.4,2.2,9.9   c0,3.6-0.7,6.9-2.2,9.9C112.8,621.5,110.5,624.1,107.3,626.1z M89.2,619c1.9,1.2,4.1,1.8,6.6,1.8c2.5,0,4.8-0.6,6.6-1.8   c1.9-1.2,3.2-2.7,4.1-4.6c0.8-1.8,1.3-3.8,1.3-6c0-2.1-0.4-4.1-1.3-6c-0.8-1.8-2.2-3.4-4.1-4.6c-1.9-1.2-4.1-1.8-6.6-1.8   c-2.5,0-4.8,0.6-6.6,1.8c-1.9,1.2-3.2,2.7-4.1,4.6c-0.8,1.8-1.3,3.8-1.3,6c0,2.1,0.4,4.1,1.3,6C85.9,616.3,87.3,617.8,89.2,619z"/>
	<path class="st4" d="M153.6,626.1c-3.2,2-7,3.1-11.4,3.1c-4.4,0-8.2-1-11.4-3.1c-3.2-2-5.5-4.6-7-7.6c-1.5-3.1-2.2-6.4-2.2-9.9   c0-3.6,0.7-6.9,2.2-9.9s3.8-5.6,7-7.6c3.2-2,7-3.1,11.4-3.1c4.4,0,8.2,1,11.4,3.1c3.2,2,5.5,4.6,7,7.6s2.2,6.4,2.2,9.9   c0,3.6-0.7,6.9-2.2,9.9C159.1,621.5,156.8,624.1,153.6,626.1z M135.5,619c1.9,1.2,4.1,1.8,6.6,1.8c2.5,0,4.8-0.6,6.6-1.8   c1.9-1.2,3.2-2.7,4.1-4.6c0.8-1.8,1.3-3.8,1.3-6c0-2.1-0.4-4.1-1.3-6c-0.8-1.8-2.2-3.4-4.1-4.6c-1.9-1.2-4.1-1.8-6.6-1.8   c-2.5,0-4.8,0.6-6.6,1.8c-1.9,1.2-3.2,2.7-4.1,4.6c-0.8,1.8-1.3,3.8-1.3,6c0,2.1,0.4,4.1,1.3,6C132.3,616.3,133.6,617.8,135.5,619z   "/>
	<path class="st4" d="M183.8,628.6h-8v-32h-10v-8h27.9v8h-10V628.6z"/>
	<path class="st4" d="M198.7,628.6v-40.1h15.8c3.5,0,6.3,1.1,8.4,3.4c2.1,2.3,3.1,5.2,3,8.8c-0.1,3.7-1.4,6.3-3.7,7.9   c1.3,0.9,2.3,2.1,3.1,3.5c0.7,1.4,1.1,2.9,1.1,4.5c0,3.4-1.2,6.2-3.5,8.5c-2.3,2.3-5.1,3.5-8.3,3.5H198.7z M206.8,596.5v8.1h4.8   h2.3c1.1,0,2-0.4,2.7-1.2c0.7-0.8,1-1.7,1-2.9c0-1.2-0.3-2.1-1-2.9c-0.7-0.8-1.6-1.1-2.7-1.1H206.8z M206.8,612.6v8h4.8h2.3   c1.2,0,2.1-0.4,2.9-1.2c0.8-0.8,1.1-1.7,1.1-2.9s-0.4-2.1-1.1-2.8c-0.8-0.8-1.7-1.1-2.9-1.1H206.8z"/>
	<path class="st4" d="M228.8,628.6l16.9-41.5h0.8l16.9,41.5h-9l-1.6-4.3h-13.3l-1.6,4.3H228.8z M242.3,616.8h7.4l-3.6-10.4   L242.3,616.8z"/>
	<path class="st4" d="M267.8,588.5h8v32h12.7v8h-20.7V588.5z"/>
	<path class="st4" d="M294.3,588.5h8v32H315v8h-20.7V588.5z"/>
	<path class="st6" d="M353.9,605.5l15.8-17.6h2.5v40.7h-8.1l0.1-22.3L353.9,617l-10.2-10.8v22.3h-8.1v-40.7h2.6L353.9,605.5z"/>
	<path class="st6" d="M376.6,628.6l16.9-41.5h0.8l16.9,41.5h-9l-1.6-4.3h-13.3l-1.6,4.3H376.6z M390.1,616.8h7.4l-3.6-10.4   L390.1,616.8z"/>
	<path class="st6" d="M430.2,628.6h-8v-32h-10v-8h27.9v8h-10V628.6z"/>
	<path class="st6" d="M470.6,597.8c-2.2-1.2-4.6-1.7-6.9-1.7c-2.2,0-4.1,0.4-5.8,1.3c-1.7,0.9-3,2.1-3.9,3.5c-0.9,1.4-1.5,3-1.9,4.8   c-0.4,1.7-0.4,3.5,0,5.2c0.4,1.7,1.1,3.3,1.9,4.8c0.9,1.4,2.2,2.6,3.9,3.5c1.7,0.9,3.7,1.3,5.8,1.3c2.8,0,5.4-0.6,7.7-1.8l1.1,8.3   c-2.7,1.1-5.7,1.7-8.8,1.7c-4.3,0-8.1-1-11.3-3c-3.2-2-5.5-4.5-6.9-7.5c-1.4-3-2.1-6.3-2.1-9.8c0-3.5,0.7-6.8,2.1-9.8   c1.4-3,3.7-5.5,6.9-7.5c3.2-2,6.9-3,11.3-3c2.9,0,5.5,0.5,7.9,1.6L470.6,597.8z"/>
	<path class="st6" d="M505.7,628.6h-8v-16h-12v16h-8v-40h8v16h12v-16h8V628.6z"/>
	<path class="st4" d="M543,628.6h-8v-32h-10v-8H553v8h-10V628.6z"/>
	<path class="st4" d="M586.9,628.6h-9.1l-8.1-15.3h-3.9v15.3h-8v-40h15.8c2.3,0,4.3,0.5,6,1.5c1.8,1,3.1,2.3,4,3.8   c0.9,1.5,1.5,3.3,1.7,5.2c0.2,1.9,0.1,3.7-0.4,5.4c-0.5,1.7-1.4,3.3-2.6,4.7c-1.3,1.4-2.9,2.4-4.8,2.9L586.9,628.6z M565.9,596.5v9   h7.1c1.3,0,2.3-0.5,3-1.4c0.7-0.9,1.1-2,1.1-3.1s-0.4-2.1-1.1-3.1c-0.7-0.9-1.7-1.4-3-1.4H565.9z"/>
	<path class="st4" d="M587.5,628.6l16.9-41.5h0.8l16.9,41.5h-9l-1.6-4.3h-13.3l-1.6,4.3H587.5z M601.1,616.8h7.4l-3.6-10.4   L601.1,616.8z"/>
	<path class="st4" d="M652,597.8c-2.2-1.2-4.6-1.7-6.9-1.7c-2.2,0-4.1,0.4-5.8,1.3c-1.7,0.9-3,2.1-3.9,3.5c-0.9,1.4-1.5,3-1.9,4.8   c-0.4,1.7-0.4,3.5,0,5.2c0.4,1.7,1.1,3.3,1.9,4.8c0.9,1.4,2.2,2.6,3.9,3.5c1.7,0.9,3.7,1.3,5.8,1.3c2.8,0,5.4-0.6,7.7-1.8l1.1,8.3   c-2.7,1.1-5.7,1.7-8.8,1.7c-4.3,0-8.1-1-11.3-3c-3.2-2-5.5-4.5-6.9-7.5c-1.4-3-2.1-6.3-2.1-9.8c0-3.5,0.7-6.8,2.1-9.8   c1.4-3,3.7-5.5,6.9-7.5c3.2-2,6.9-3,11.3-3c2.9,0,5.5,0.5,7.9,1.6L652,597.8z"/>
	<path class="st4" d="M659.1,628.6v-40h8v16l10.1-16h9.4l-13,19.8l14.1,20.3h-9.9l-10.6-15.7v15.7H659.1z"/>
	<path class="st4" d="M712.6,628.6h-20.7v-40h20v8h-12v8h10.5v8h-10.5v8h12.7V628.6z"/>
	<path class="st4" d="M747.9,628.6h-9.1l-8.1-15.3h-3.9v15.3h-8v-40h15.8c2.3,0,4.3,0.5,6,1.5c1.8,1,3.1,2.3,4,3.8   c0.9,1.5,1.5,3.3,1.7,5.2c0.2,1.9,0.1,3.7-0.4,5.4c-0.5,1.7-1.4,3.3-2.6,4.7c-1.3,1.4-2.9,2.4-4.8,2.9L747.9,628.6z M726.9,596.5v9   h7.1c1.3,0,2.3-0.5,3-1.4c0.7-0.9,1.1-2,1.1-3.1s-0.4-2.1-1.1-3.1c-0.7-0.9-1.7-1.4-3-1.4H726.9z"/>
</g>
</svg>